<svg width="56" height="24" viewBox="0 0 56 24" fill="none" xmlns="http://www.w3.org/2000/svg">
<rect width="56" height="24" rx="12" fill="#F5F7F9"/>
<path d="M21.268 12.74V11.864H16.444V9.8H20.44V8.924H16.444V6.968H15.52V8.924H11.644V9.8H15.52V11.864H10.78V12.74H15.016C13.936 14.288 12.124 15.776 10.456 16.52C10.66 16.688 10.948 17.036 11.104 17.252C12.676 16.46 14.356 15.032 15.52 13.436V17.924H16.444V13.388C17.608 14.984 19.312 16.472 20.896 17.264C21.052 17.024 21.34 16.676 21.544 16.508C19.876 15.776 18.052 14.276 16.96 12.74H21.268ZM28.972 13.82H26.884V13.64V12.032H28.972V13.82ZM31.276 12.032V11.576C31.804 11.996 32.38 12.356 32.992 12.62C33.136 12.392 33.412 12.044 33.604 11.876C32.788 11.552 32.032 11.072 31.36 10.484C31.972 10.04 32.692 9.464 33.244 8.924L32.572 8.456C32.152 8.912 31.456 9.548 30.868 10.004C30.58 9.716 30.328 9.404 30.088 9.08C30.652 8.66 31.312 8.084 31.84 7.568L31.168 7.088C30.796 7.508 30.22 8.072 29.692 8.504C29.392 8.036 29.14 7.52 28.936 7.004L28.168 7.232C28.768 8.78 29.68 10.16 30.844 11.204H25.204C26.272 10.304 27.184 9.128 27.7 7.724L27.112 7.436L26.956 7.472H23.536V8.264H26.512C26.212 8.828 25.828 9.356 25.396 9.848C25.012 9.488 24.424 9.02 23.944 8.672L23.392 9.14C23.884 9.512 24.472 10.016 24.832 10.4C24.088 11.084 23.224 11.624 22.396 11.96C22.564 12.128 22.828 12.44 22.948 12.632C23.548 12.356 24.16 12.008 24.736 11.576V12.032H25.996V13.628V13.82H23.236V14.648H25.9C25.684 15.644 25 16.592 22.996 17.264C23.176 17.432 23.452 17.768 23.56 17.972C25.912 17.156 26.62 15.932 26.812 14.648H28.972V16.568C28.972 17.552 29.236 17.816 30.244 17.816H31.816C32.692 17.816 32.944 17.396 33.028 15.872C32.788 15.812 32.416 15.656 32.224 15.5C32.176 16.784 32.116 17.024 31.744 17.024H30.376C29.968 17.024 29.896 16.952 29.896 16.58V14.648H32.74V13.82H29.896V12.032H31.276ZM45.076 7.688H39.22V8.528H45.076V7.688ZM37.216 6.956C36.616 7.808 35.464 8.888 34.468 9.56C34.624 9.728 34.864 10.076 34.996 10.268C36.064 9.512 37.288 8.348 38.068 7.292L37.216 6.956ZM37.708 9.512C36.88 10.868 35.584 12.248 34.348 13.124C34.528 13.304 34.84 13.688 34.972 13.868C35.416 13.52 35.872 13.088 36.328 12.62V17.948H37.216V11.636C37.708 11.048 38.164 10.436 38.536 9.824L37.708 9.512ZM45.424 10.964H38.704V11.816H42.712V16.76C42.712 16.964 42.64 17.012 42.412 17.024C42.184 17.036 41.392 17.036 40.54 17.012C40.672 17.264 40.792 17.636 40.828 17.876C42.004 17.876 42.676 17.876 43.084 17.744C43.48 17.6 43.612 17.324 43.612 16.772V11.816H45.424V10.964Z" fill="#858C90"/>
</svg>
